<svg xmlns="http://www.w3.org/2000/svg" width="48" height="48" viewBox="0 0 48 48"><path d="M44.114 7.671L24.746 1.623a2.514 2.514 0 0 0-1.492 0L3.886 7.671a2.504 2.504 0 0 0-1.758 2.39c0 26.781 13.531 33.182 20.801 36.62a2.495 2.495 0 0 0 2.141 0c7.27-3.438 20.801-9.839 20.801-36.62a2.504 2.504 0 0 0-1.757-2.39zM24 41.646c-6.902-3.317-16.324-8.811-16.842-29.75L24 6.636l16.841 5.26C40.324 32.835 30.902 38.329 24 41.646z"/><path d="M10.003 13.987c0 6.185 1.609 11.054 3.783 14.804l17.043-17.043L24 9.615l-13.997 4.372zM24 38.816c4.785-2.151 13.79-9.352 13.992-24.317l-19.89 19.89c2.295 2.288 4.538 3.713 5.898 4.427z"/></svg>