<svg xmlns="http://www.w3.org/2000/svg" width="100" height="100" viewBox="0 0 100 100"><path d="M94.909 6.256h-84.09a2 2 0 0 0-2 2v84.09a2 2 0 0 0 2 2h84.09a2 2 0 0 0 2-2V8.256a2 2 0 0 0-2-2zm-9.467 78.709H24.619a1.232 1.232 0 0 1-1.214-1.43l4.721-28.605c.034-.75.185-7.899-5.989-10.867a1.232 1.232 0 0 1 .028-2.23l2.516-1.132c-2.198-.838-4.771-2.288-5.453-4.615-.577-1.968.279-4.062 2.545-6.224.375-.437 2.147-2.298 6.766-4.529-.037-1.388-.268-3.755-1.082-5.139a1.213 1.213 0 0 1-.151-.411c-.026-.148-.614-3.651 1.26-5.883.672-.801 1.944-1.755 4.183-1.755.831 0 1.758.131 2.757.389.146.038.285.102.407.19 0 0 .659.434 1.614.434 1.303 0 2.582-.777 3.8-2.31.437-.866 1.575-2.141 3.472-2.141 2.154 0 4.557 1.61 7.346 4.921l2.47 2.964a30.17 30.17 0 0 1 3.417-.2c4.755 0 7.921 1.263 9.157 3.654 1.041 2.014.696 4.585-1.062 7.809a12.686 12.686 0 0 1 2.499-.272c2.791 0 4.254 1.202 4.991 2.21 1.651 2.26 1.624 5.959-.084 11.308-.738 2.313-1.945 6.807-2.35 8.329 2.241 3.549 15.759 25.349 15.491 34.342a1.233 1.233 0 0 1-1.232 1.193z"/><path d="M45.067 42.678h-7.365s2.505 2.168 5.289 2.168c0 0 2.076-.22 2.076-2.168z"/><path d="M68.664 49.322c.065-.248 1.611-6.11 2.523-8.968 1.784-5.586 1.225-8.037.441-9.109-.59-.808-1.573-1.201-3.004-1.201-2.323 0-4.788 1.08-4.812 1.091a1.23 1.23 0 0 1-1.503-1.835c2.607-3.677 3.539-6.486 2.693-8.122-.774-1.499-3.25-2.324-6.972-2.324-2.062 0-3.717.26-3.733.263a1.228 1.228 0 0 1-1.139-.427l-2.9-3.479c-2.96-3.516-4.692-4.042-5.46-4.042-.914 0-1.285.807-1.288.815a1.28 1.28 0 0 1-.16.271c-2.159 2.781-4.359 3.365-5.825 3.365-1.365 0-2.38-.49-2.818-.747-2.048-.498-3.487-.302-4.255.606-.869 1.029-.854 2.859-.753 3.692 1.424 2.659 1.303 6.805 1.297 6.985a1.232 1.232 0 0 1-.713 1.076c-5.01 2.313-6.645 4.235-6.661 4.254a1.186 1.186 0 0 1-.108.116c-1.085 1.026-2.302 2.518-1.927 3.794.366 1.248 2.024 2.222 3.68 2.885-.168-.087-.337-.173-.493-.27-1.531-.961-2.416-2.338-2.63-4.091a1.23 1.23 0 0 1 2.443-.297c.123 1.009.598 1.741 1.495 2.305 5.372 3.372 22.27-1.254 28.328-3.32a1.229 1.229 0 1 1 .794 2.328c-.712.243-13.674 4.617-23.104 4.617-1.224 0-2.383-.08-3.454-.245.434.155.757.53.813.999.013.111.002.22-.014.327 22.37 3.323 34.145-9.089 34.145-9.089 5.428-1.589 7.131-.903 7.516 1.113 2.367 12.388-33.404 19.903-33.404 19.903l1.67 7.516c3.956 8.843 1.279 18.974.149 22.43h44.644c-.963-9.648-15.197-31.973-15.347-32.207a1.235 1.235 0 0 1-.154-.978zm-38.06-18.657v-3.436s16.117-.14 24.204-7.655l1.406 2.784c-.001-.001-5.568 8.403-25.61 8.307z"/><path d="M54.808 42.678h-7.365s2.506 2.168 5.289 2.168c-.001 0 2.076-.22 2.076-2.168z"/></svg>