<svg xmlns="http://www.w3.org/2000/svg" width="96" height="96" viewBox="0 0 96 96"><path d="M.863 11.792h2.592l35.234 26.87 35.237-26.87h2.592V7.595H.861l.002.001z"/><path d="M76.518 37.745V19.603h-2.57L38.689 46.49 3.432 19.603H.863V62.56h42.584c0 14.274 11.57 25.846 25.846 25.846 14.273 0 25.846-11.571 25.846-25.846 0-11.766-7.864-21.688-18.621-24.815zm-7.225 45.897c-11.625 0-21.084-9.458-21.084-21.083s9.459-21.083 21.084-21.083 21.082 9.458 21.082 21.083-9.457 21.083-21.082 21.083z"/><path d="M69.293 48.101c-7.973 0-14.459 6.486-14.459 14.458 0 2.789.797 5.395 2.17 7.606L76.898 50.27a14.363 14.363 0 0 0-7.605-2.169zM61.688 74.848a14.36 14.36 0 0 0 7.605 2.169c7.973 0 14.461-6.486 14.461-14.458 0-2.789-.797-5.395-2.172-7.606L61.688 74.848z"/></svg>