<svg xmlns="http://www.w3.org/2000/svg" width="581.4" height="581.4" viewBox="0 0 581.4 581.4"><path fill="#fff" d="M549.3 244.7l-47.699-17.5c-5.4-18-13.2-34.9-22.801-50.6l7.801-16.8c8.6-18.6 4.699-40.7-9.801-55.2s-36.6-18.4-55.199-9.8l-16.801 7.8c-15.699-9.6-32.6-17.4-50.6-22.8l-17.5-47.7C329.6 12.8 311.3 0 290.7 0c-20.5 0-38.9 12.8-46 32.1l-17.5 47.7c-18 5.4-34.9 13.2-50.6 22.8l-16.8-7.8c-18.7-8.6-40.7-4.7-55.2 9.8s-18.4 36.6-9.8 55.2l7.8 16.8c-9.6 15.7-17.4 32.6-22.8 50.6l-47.7 17.5C12.8 251.8 0 270.1 0 290.7c0 20.5 12.8 38.9 32.1 46l47.7 17.5c5.4 18 13.2 34.9 22.8 50.6l-7.8 16.801c-8.6 18.6-4.7 40.699 9.8 55.199 9.4 9.4 21.9 14.301 34.6 14.301 7 0 14-1.5 20.6-4.5l16.8-7.801c15.7 9.601 32.6 17.4 50.6 22.801l17.5 47.699a48.945 48.945 0 0 0 46 32.101c20.5 0 38.9-12.8 46-32.101l17.5-47.699c18-5.4 34.9-13.2 50.6-22.801l16.801 7.801c6.6 3 13.6 4.5 20.6 4.5 12.7 0 25.2-5 34.6-14.301 14.5-14.5 18.4-36.6 9.801-55.199L478.8 404.8c9.601-15.699 17.4-32.6 22.801-50.6l47.699-17.5a48.945 48.945 0 0 0 32.101-46c-.001-20.5-12.8-38.9-32.101-46zm-265.8 101c-18.2 21-42.5 32.6-68.3 32.6s-50-11.6-68.3-32.6c-37.6-43.4-37.6-113.9 0-157.2 2.2-2.5 5.8-2.5 7.9 0l128.6 148.101c1.1 1.199 1.7 2.899 1.7 4.6.1 1.699-.6 3.299-1.6 4.499zm151 0c-18.2 21-42.5 32.6-68.3 32.6s-50-11.6-68.3-32.6c-1.101-1.2-1.7-2.9-1.7-4.6 0-1.7.6-3.4 1.7-4.601l128.6-148.1c2.2-2.5 5.8-2.5 8 0 37.601 43.501 37.601 114.001 0 157.301z"/></svg>