<svg xmlns="http://www.w3.org/2000/svg" width="20.927" height="28.968" viewBox="0 0 20.927 28.968"><g fill="#fff"><path d="M20.551 16.893l-6.956-1-2.728 3.268-2.816-3.268-7.523 1L0 28.968h20.927zM10.74 14.782A7.392 7.392 0 0 0 10.74 0a7.39 7.39 0 0 0-7.39 7.391 7.39 7.39 0 0 0 7.39 7.391zm1.063-3.12h-2.43V9.348h2.43v2.314zm-4.02-6.643c.125-.354.317-.671.573-.952a2.88 2.88 0 0 1 .987-.684c.401-.174.89-.263 1.466-.263.569 0 1.048.078 1.438.229.391.153.705.346.946.583.242.237.418.5.532.783.112.286.176.555.192.813 0 .358-.047.647-.141.869a1.665 1.665 0 0 1-.368.557c-.15.148-.321.269-.508.367-.188.099-.378.196-.572.297a2.11 2.11 0 0 0-.327.212.92.92 0 0 0-.199.221.831.831 0 0 0-.099.27c-.02.101-.029.217-.029.349h-2.16a6.578 6.578 0 0 1-.013-.443c0-.187.023-.379.07-.573.047-.193.13-.385.246-.572.116-.188.287-.343.513-.468.094-.047.203-.096.328-.151a4.12 4.12 0 0 0 .357-.182c.111-.067.207-.146.285-.241a.502.502 0 0 0 .117-.336c0-.398-.226-.596-.678-.596-.28 0-.479.1-.596.302a1.143 1.143 0 0 0-.139.69H7.563a3.99 3.99 0 0 1 .22-1.081z"/></g></svg>