<svg xmlns="http://www.w3.org/2000/svg" viewBox="0 0 16 16"><path d="M8 0a8 8 0 1 0 0 16A8 8 0 0 0 8 0zm1.23 13H6.88v-1.939h2.35V13zm2.256-5.654c-.199.241-.584.55-1.151.927l-.56.37c-.305.2-.508.436-.607.705-.062.17-.098.435-.104.791H6.935c.032-.756.116-1.279.253-1.566.137-.29.489-.623 1.057-.999l.575-.384.457-.396c.211-.247.315-.518.315-.813 0-.34-.116-.65-.352-.93-.233-.28-.661-.42-1.281-.42-.61 0-1.043.173-1.298.518-.254.345-.381.703-.381 1.075H4c.063-1.276.587-2.181 1.57-2.713C6.19 3.17 6.953 3 7.858 3c1.188 0 2.176.242 2.962.726.785.484 1.18 1.199 1.18 2.148 0 .582-.171 1.072-.514 1.472z" fill="#fff"/></svg>