<svg xmlns="http://www.w3.org/2000/svg" width="96" height="96" viewBox="0 0 96 96"><g fill="#757575"><path d="M48 1.458C22.337 1.458 1.458 22.337 1.458 48S22.337 94.542 48 94.542 94.542 73.663 94.542 48 73.663 1.458 48 1.458zm0 83.423c-20.336 0-36.881-16.545-36.881-36.881S27.664 11.119 48 11.119 84.881 27.664 84.881 48 68.336 84.881 48 84.881z"/><path d="M62.388 24.403c-1.021-.533-4.897-2.272-11.898-2.272-15.641 0-26.149 10.565-26.149 26.29 0 15.46 9.715 25.449 24.75 25.449 6.253 0 10.894-1.244 13.151-2.408.625-.322.948-1.03.782-1.713l-1.189-4.897a1.52 1.52 0 0 0-2.145-1.011c-2.294 1.113-5.872 1.806-9.339 1.806-10.348 0-16.525-6.518-16.525-17.436 0-11.224 6.308-17.925 16.875-17.925 3.284 0 6.479.654 8.764 1.797a1.521 1.521 0 0 0 2.136-.912l1.539-4.967a1.525 1.525 0 0 0-.752-1.801z"/></g></svg>